<svg id="Calque_1" data-name="Calque 1" xmlns="http://www.w3.org/2000/svg" viewBox="0 0 167 196.5"><defs><style>.cls-1{fill:#fff;}.cls-2{fill:#155560;}.cls-3{fill:#72c6dd;}.cls-4{fill:#b2deeb;}.cls-5{fill:#cfeaf4;}.cls-6{fill:#26879e;}.cls-7{fill:#b3dfeb;}.cls-8{fill:#27879e;}</style></defs><title>robotError</title><path class="cls-1" d="M89.39,54.24,82.3,45.43a5.34,5.34,0,0,1,.78-7.49l.84-.68a5.35,5.35,0,0,0-1.3-9.07l-8.28-3.48"/><path class="cls-2" d="M88.44,55l-7.09-8.81a6.57,6.57,0,0,1,1-9.2l.84-.68a4.12,4.12,0,0,0-1-7l-8.27-3.48.94-2.25,8.28,3.48a6.57,6.57,0,0,1,1.6,11.14l-.84.67a4.13,4.13,0,0,0-.6,5.78l7.09,8.81Z"/><circle class="cls-1" cx="67.25" cy="20.28" r="8.44"/><path class="cls-2" d="M67.25,29.94a9.66,9.66,0,1,1,9.66-9.66A9.68,9.68,0,0,1,67.25,29.94Zm0-16.88a7.22,7.22,0,1,0,7.22,7.22A7.23,7.23,0,0,0,67.25,13.06Z"/><rect class="cls-3" x="24.96" y="64.88" width="120" height="120" rx="18.08" ry="18.08"/><path class="cls-4" d="M25,167.09V82.67A17.79,17.79,0,0,1,42.75,64.88H76.07c-18.14,2.49-32.71,3.22-39.9,10C18.08,91.94,29.81,126.11,25,167.09Z"/><path class="cls-3" d="M66.73,48.3H103.2a6.64,6.64,0,0,1,6.64,6.64v9.94a0,0,0,0,1,0,0H60.09a0,0,0,0,1,0,0V54.94A6.64,6.64,0,0,1,66.73,48.3Z"/><rect class="cls-5" x="35.16" y="76.64" width="99.6" height="99.6" rx="17.6" ry="17.6"/><path class="cls-6" d="M35.22,160l-.06-65.52A17.79,17.79,0,0,1,53,76.64h64c-22.59,0-49.39,1.55-65.59,4.52a15.65,15.65,0,0,0-12.63,13C36.24,110.6,35.22,140.79,35.22,160Z"/><path class="cls-7" d="M134.7,92.93l.06,65.52A17.78,17.78,0,0,1,117,176.24H53c22.58,0,49.38-1.55,65.58-4.52a15.65,15.65,0,0,0,12.63-13C133.69,142.28,134.7,112.09,134.7,92.93Z"/><path class="cls-7" d="M60.09,64.88V54.78a6.48,6.48,0,0,1,6.48-6.48H91.12C67,48.3,60.09,54.78,60.09,64.88Z"/><path class="cls-8" d="M109.84,64.88H60.09s49.75,0,49.75-10.1Z"/><path class="cls-2" d="M98.15,131.54a2,2,0,0,1-1.44-3.47l23.37-23.37a2,2,0,0,1,2.88,2.88L99.59,131A2,2,0,0,1,98.15,131.54Z"/><path class="cls-2" d="M121.52,131.54a2.06,2.06,0,0,1-1.44-.59L96.71,107.58a2,2,0,0,1,2.88-2.88L123,128.07a2,2,0,0,1-1.44,3.47Z"/><path class="cls-2" d="M48.41,131.54A2,2,0,0,1,47,128.07L70.33,104.7a2,2,0,0,1,2.88,2.88L49.84,131A2,2,0,0,1,48.41,131.54Z"/><path class="cls-2" d="M71.77,131.54a2.06,2.06,0,0,1-1.44-.59L47,107.58a2,2,0,0,1,2.87-2.88l23.37,23.37a2,2,0,0,1,0,2.88A2.06,2.06,0,0,1,71.77,131.54Z"/><path class="cls-2" d="M121.52,165.36c-4.56,0-6.93-2.64-8.83-4.75-1.7-1.9-3-3.4-5.79-3.4s-4.1,1.5-5.8,3.4c-1.9,2.11-4.26,4.75-8.83,4.75s-6.92-2.64-8.82-4.75c-1.71-1.9-3-3.4-5.8-3.4s-4.09,1.5-5.8,3.4c-1.9,2.11-4.26,4.75-8.82,4.75s-6.93-2.64-8.83-4.75c-1.7-1.9-3.05-3.4-5.79-3.4a2,2,0,1,1,0-4.07c4.56,0,6.92,2.64,8.82,4.75,1.7,1.9,3.05,3.39,5.8,3.39s4.09-1.49,5.79-3.39c1.9-2.11,4.27-4.75,8.83-4.75s6.93,2.64,8.83,4.75c1.7,1.9,3,3.39,5.79,3.39s4.1-1.49,5.8-3.39c1.9-2.11,4.26-4.75,8.83-4.75s6.92,2.64,8.82,4.75c1.71,1.9,3,3.39,5.8,3.39a2,2,0,1,1,0,4.08Z"/></svg>