<svg id="Layer_1" enable-background="new 0 0 512 512" height="512" viewBox="0 0 512 512" width="512" xmlns="http://www.w3.org/2000/svg"><path fill="white" d="m348 512h-184c-66.168 0-120-53.832-120-120v-272c0-66.168 53.832-120 120-120h184c66.168 0 120 53.832 120 120v272c0 66.168-53.832 120-120 120zm-184-472c-44.112 0-80 35.888-80 80v272c0 44.112 35.888 80 80 80h184c44.112 0 80-35.888 80-80v-272c0-44.112-35.888-80-80-80zm200 58c-1.056-26.533-38.951-26.519-40 0 0 16.542-13.458 30-30 30h-76c-16.542 0-30-13.458-30-30 0-11.046-8.954-20-20-20s-20 8.954-20 20c0 38.598 31.402 70 70 70h76c38.598 0 70-31.402 70-70zm-94 181c0-11.046 8.954-20 20-20h68c26.536 1.056 26.516 38.953 0 40h-68c-11.046 0-20-8.954-20-20zm88 83h-68c-26.536 1.056-26.516 38.953 0 40h68c26.536-1.056 26.516-38.953 0-40zm-132.24-142.043-38.364 38.904c-.101.16-.434.173-.525.069l-18.6-18.942c-7.739-7.883-20.401-7.997-28.283-.258-7.881 7.739-7.997 20.401-.258 28.283l18.668 19.012c15.117 15.875 42.315 15.868 57.44-.039l38.402-38.942c7.756-7.865 7.668-20.528-.197-28.284-7.864-7.757-20.527-7.668-28.283.197zm0 103-38.364 38.904c-.101.16-.434.173-.525.069l-18.6-18.942c-7.739-7.883-20.401-7.997-28.283-.258-7.881 7.739-7.997 20.401-.258 28.283l18.668 19.012c15.117 15.875 42.315 15.868 57.44-.039l38.402-38.942c7.756-7.865 7.668-20.528-.197-28.284-7.864-7.757-20.527-7.668-28.283.197z"/></svg>